PathFileType	4	(X/Y/Z)	28_2_61_p1_0-546.trc
DataRate	CameraRate	NumFrames	NumMarkers	Units	OrigDataRate	OrigDataStartFrame	OrigNumFrames
55.0	55.0	5	27	m	55.0	410	547
Frame#	Time	RHip			RKnee			RAnkle			RBigToe			RSmallToe			RHeel			LHip			LKnee			LAnkle			LBigToe			LSmallToe			LHeel			Neck			Head			Nose			RShoulder			RElbow			RWrist			RThumb			RIndex			RPinky			LShoulder			LElbow			LWrist			LThumb			LIndex			LPinky			
		X1	Y1	Z1	X2	Y2	Z2	X3	Y3	Z3	X4	Y4	Z4	X5	Y5	Z5	X6	Y6	Z6	X7	Y7	Z7	X8	Y8	Z8	X9	Y9	Z9	X10	Y10	Z10	X11	Y11	Z11	X12	Y12	Z12	X13	Y13	Z13	X14	Y14	Z14	X15	Y15	Z15	X16	Y16	Z16	X17	Y17	Z17	X18	Y18	Z18	X19	Y19	Z19	X20	Y20	Z20	X21	Y21	Z21	X22	Y22	Z22	X23	Y23	Z23	X24	Y24	Z24	X25	Y25	Z25	X26	Y26	Z26	X27	Y27	Z27	
410	7.454545454545454	0.22396473493800034	0.621809913063579	0.9175032063516987	0.22450534232171906	0.8519933507176359	1.3163248256757853	0.2215851105774168	1.0557737696944594	1.7179437894442244	0.163389763108477	0.8653386125582763	1.7909470140922081	0.24180599080119008	0.893130442170924	1.7936356137713159	0.20690125878791085	1.1706479550587885	1.7774033487906098	-0.0004064108852670825	0.6379663158541741	0.9286858801203342	0.007728434673998255	0.8333738944223511	1.3278833366208527	0.022381174227906978	1.0568130990934326	1.7234488119952052	0.024370024049162033	0.8591158170707005	1.7813407270336954	-0.03627836631475837	0.9342065630837204	1.7829236688947667	0.05744533444462333	1.1622975648204292	1.7818686443903335	0.08342107913288592	0.4064040974659439	0.3055338164039921	0.0901628394956307	0.26670593196281744	0.10431995308823692	0.10928191020445939	0.26227078245173385	0.24343847543131536	0.2396221116371056	0.48526161248408906	0.3389678774151516	0.33659471498924876	0.2734841505866542	0.555384338323194	0.10900523775711372	0.1204176978575475	0.539888601236781	-0.02144433039608403	0.0870635962875051	0.5673906985060446	-0.02486988637901149	0.07561528384127866	0.5532389119931403	-0.010105887044425032	0.09077663567638533	0.5871092014549331	-0.08592350849377914	0.43947701677381534	0.36958745512660873	-0.20288208920172637	0.28833739533564684	0.5942530394305131	-0.3201530219203347	0.11770774692826994	0.5884604257363756	-0.37981546607898015	0.0336983656001096	0.5565099594421555	-0.4062511845536589	0.023223161938210602	0.5776957325353063	-0.3858457733961332	0.035332298642892376	0.6363883378400932
411	7.472727272727273	0.22369368209578025	0.6216300057779981	0.9136016002731426	0.22442628834359998	0.8523573800487642	1.316442440934786	0.22157275147505617	1.0557567149949196	1.7180737163822501	0.16342882552104038	0.8650587013582123	1.7908247380890443	0.24197261066883904	0.8931609313241092	1.793501448540243	0.2069487996147501	1.170675711354712	1.7776532375009522	-0.0001576212401767557	0.6380072012823056	0.9284496663536199	0.0076742992984587316	0.8333571301324314	1.3277543528352531	0.02104705164006221	1.0527414916886397	1.7182081176777195	0.024392945279722522	0.8586267921448666	1.7812169393861885	-0.03756418663862184	0.9354539279245988	1.7830188474117927	0.057304589820613344	1.1624692865663289	1.782008977437263	0.08350386188492201	0.4061747839236697	0.3055179016236932	0.08978394972632808	0.2650610694223953	0.1015313687923849	0.10917254667161305	0.2621817732974635	0.24341505292245347	0.23962835252978856	0.48675644137431273	0.343132233958582	0.33034479542944445	0.27732287697504343	0.5616760588183811	0.09823138634529807	0.1211765120534061	0.5406051473155411	-0.038317260182315106	0.10571094789566547	0.5693616219185637	-0.04672842227975428	0.09388533467790464	0.5512478558824464	-0.01853444454158207	0.10155549581503312	0.5922915099855753	-0.08602279099322423	0.44067001191305805	0.368906178334384	-0.2009234517445053	0.30030190850329425	0.5919880438098252	-0.3345218769204783	0.12666124851530766	0.5974392112083725	-0.38160074154204654	0.03174633678172832	0.5740196088454896	-0.4413376128881533	0.03644998641244511	0.5826589380771943	-0.41915765753301887	0.06030803561693051	0.6435883369389416
412	7.490909090909091	0.2237529987588865	0.6215873803286702	0.9136079078232414	0.22456194255065906	0.8524513025449056	1.3164523736690328	0.22147188655352162	1.0556769091370988	1.718109193096604	0.16334897038670926	0.8651737746773681	1.7908121934747863	0.24190271541244038	0.893071180214387	1.7934824364362412	0.20686483291701566	1.1705830949182874	1.7775418702442967	0.003726568607696749	0.6391859998746591	0.9281443063105516	0.012151425650571777	0.817933435867815	1.326492066752918	0.022306434191768677	1.0570317315017062	1.7235798177030703	0.02352286951780294	0.8607398254960046	1.785251627572584	-0.03743766584430295	0.9363313044895263	1.7830618133634843	0.05765871286721107	1.1639631611785937	1.7823520519326352	0.08343534559967068	0.4060316852257092	0.30548625771442445	0.08635391642686131	0.2763495005839861	0.09734585294142852	0.10539931410384953	0.2612303198849748	0.24397195218447484	0.2382973073754518	0.46217298867840995	0.34949769096861205	0.3195482971891818	0.2800451131033386	0.5651602162235841	0.09044631888384796	0.13027927415615564	0.5390774793742985	-0.05624591960390606	0.1361402307596524	0.5631881137007659	-0.07521316509160446	0.11474008940073349	0.5509001007824732	-0.022299343987033347	0.1121095281212055	0.593212867389796	-0.08869406747123404	0.4285237271273082	0.3722446756336554	-0.20067420178938422	0.3024568339852948	0.5949593393994032	-0.34443820060504626	0.12708665430000773	0.6080565238740927	-0.4033862980838705	0.05301015820433984	0.5888421172531473	-0.4474093666012446	0.03746190257588708	0.5923321930670193	-0.4401334670574851	0.07079581095883432	0.6515943670271389
413	7.509090909090909	0.22379290827326362	0.6215176197037323	0.9134530020117698	0.22358047657298888	0.8488545613525791	1.312093191264994	0.2215436507250962	1.055479489037532	1.7179352947568352	0.16341039372350638	0.8649741484175605	1.7906760425092803	0.24195027196584348	0.8927675136284777	1.7933667305873644	0.20605879972943567	1.172735238474824	1.7816906508035535	0.003780642732835029	0.6394147042438881	0.9280933801959951	0.012199437071221321	0.8178856793979788	1.326430704253868	0.021070150219239497	1.0527840825970227	1.718257538328906	0.02435813322863094	0.858754442431346	1.781238341521122	-0.037056658974790345	0.9359110556119602	1.7869846117837287	0.05790606578215036	1.164457355421092	1.7822954599840262	0.08321451016941575	0.40570928463848377	0.30556647981499013	0.08626442182530816	0.2764567850410882	0.09730184248617169	0.1049496440678441	0.25942964746154157	0.24132983573125413	0.23873663441513113	0.4635194602640459	0.3523354938474725	0.31938187890046	0.281067636244801	0.5653231190464104	0.08658535514116074	0.12949584750974458	0.5393594459620225	-0.056865652562415075	0.13683165153565038	0.5627269176259381	-0.0825109237123948	0.11239758811199865	0.5512597314291673	-0.022933564857782786	0.11159044239039584	0.5887329837505099	-0.08889277027313823	0.4288034722452778	0.3722341654141307	-0.200501027673674	0.31374578836825046	0.5928630944918325	-0.344076737344991	0.13209191894999597	0.6175585064140942	-0.4241541939073169	0.07910306142615132	0.592178873695522	-0.4530323857123169	0.03256992775062503	0.6152092149321552	-0.4415161567455597	0.06372444273986848	0.664306147817328
414	7.527272727272727	0.22297734807254452	0.6189080820458747	0.9098717252369233	0.22907508310190233	0.8663423413387752	1.3169061627431933	0.2216180050437392	1.0554419641308497	1.7180200211742256	0.1632672139187039	0.8648748258307959	1.790837863415262	0.23705952207241593	0.8914960779257355	1.7935645305713512	0.21039430193214115	1.171508204568037	1.7812738134569026	-9.673639778472751e-05	0.6383735766821217	0.9284535887638686	0.007749092519101096	0.8336895709023268	1.3278082792145172	0.021063428043355606	1.0527504635284788	1.718241458225299	0.024296988850304516	0.8588953319687002	1.7812766103452722	-0.03724766593678333	0.9356570530767326	1.7869910737621622	0.05761002672189973	1.1630603966972923	1.7820556388531734	0.08312330977992005	0.40551004883442604	0.3054860453549593	0.08316375392401841	0.2892707949819211	0.09603469910025064	0.10483637425253318	0.259461468385532	0.2411701364532738	0.23885258130205483	0.4636203133208289	0.3523282258465057	0.317354479593275	0.29302693040810235	0.5632868494857869	0.08367218537819716	0.1393474844474387	0.5339702267766525	-0.05428513091146403	0.14685875751068458	0.5569755389022939	-0.0809526802267393	0.12736574354573715	0.5446639278734339	-0.025977930695383542	0.1207998765774301	0.5825394493021814	-0.08613431284986207	0.4406990427523604	0.36897621773734196	-0.1985526301895112	0.32635945475944833	0.5900541780604427	-0.34410976956326234	0.13222395384853475	0.6177940013999651	-0.42674729811404977	0.06816386678597564	0.6086569337615998	-0.45229046292518776	0.048013128576659875	0.6274349483282864	-0.4426011089153015	0.11017124176542101	0.6805009705501663
